<?xml version="1.0" standalone="no"?>
<!DOCTYPE svg PUBLIC "-//W3C//DTD SVG 20010904//EN"
 "http://www.w3.org/TR/2001/REC-SVG-20010904/DTD/svg10.dtd">
<svg version="1.0" xmlns="http://www.w3.org/2000/svg"
 width="1182.000000pt" height="1182.000000pt" viewBox="0 0 1182.000000 1182.000000"
 preserveAspectRatio="xMidYMid meet">
<metadata>
Created by potrace 1.11, written by Peter Selinger 2001-2013
</metadata>
<g transform="translate(0.000000,1182.000000) scale(0.100000,-0.100000)"
fill="#000000" stroke="none">
<path d="M720 5914 c0 -1300 3 -1634 13 -1635 15 -1 649 -1 661 0 8 1 1 1895
-8 2106 -3 55 -7 146 -10 203 -5 96 4 131 19 80 4 -13 17 -45 30 -73 12 -27
49 -108 81 -180 58 -130 319 -650 368 -735 14 -25 29 -52 33 -60 5 -12 180
-328 260 -470 11 -19 39 -71 63 -115 24 -44 73 -134 110 -200 37 -66 76 -136
87 -155 11 -19 36 -64 55 -100 45 -82 81 -148 125 -227 19 -35 40 -66 45 -69
9 -6 590 -9 745 -5 l32 1 -1 1634 0 1633 -338 1 c-248 0 -340 -3 -343 -11 -12
-36 2 -1511 18 -1777 10 -179 26 -368 41 -495 4 -37 3 -39 -11 -21 -8 11 -15
24 -15 28 0 5 -8 28 -19 51 -10 23 -52 119 -92 212 -85 196 -277 588 -372 755
-35 63 -74 133 -87 155 -12 22 -52 92 -88 155 -36 63 -76 135 -90 160 -14 25
-66 117 -116 205 -51 88 -95 167 -99 175 -4 8 -13 24 -20 35 -7 12 -57 100
-111 197 l-100 176 -433 0 -433 0 0 -1634z"/>
<path d="M4067 7541 c-2 -3 -3 -739 -3 -1635 l1 -1629 340 1 c187 0 352 1 366
1 l26 1 1 668 c0 367 1 673 1 681 1 13 84 -93 545 -694 295 -386 323 -420 387
-481 66 -62 126 -103 204 -140 l60 -28 348 -2 c261 -2 346 1 339 9 -18 24
-418 544 -466 607 -28 36 -194 252 -370 480 -176 228 -333 433 -350 455 -17
22 -34 42 -37 45 -3 3 -9 13 -12 23 -7 18 7 40 70 117 14 17 315 407 401 520
32 41 143 185 247 320 104 135 222 288 263 340 40 52 105 138 145 190 39 52
80 104 89 114 21 23 23 36 6 37 -7 0 -152 1 -323 1 -320 1 -359 -3 -437 -43
-94 -48 -196 -134 -271 -229 -28 -36 -54 -67 -57 -70 -3 -3 -32 -41 -65 -85
-33 -43 -65 -86 -72 -95 -7 -8 -90 -116 -184 -240 -228 -298 -439 -572 -453
-587 -8 -9 -11 175 -11 670 l0 682 -363 1 c-199 1 -364 -1 -365 -5z"/>
<path d="M7526 7534 c-154 -32 -290 -144 -476 -390 -57 -76 -107 -141 -110
-144 -3 -3 -48 -61 -99 -130 -52 -69 -131 -172 -176 -230 -530 -683 -559 -721
-544 -746 8 -12 57 -78 109 -145 95 -122 177 -229 250 -324 72 -94 300 -390
313 -405 6 -8 86 -114 177 -235 232 -308 333 -406 490 -476 l55 -24 1820 0
1820 0 0 1623 c0 984 -4 1626 -9 1630 -18 11 -3566 8 -3620 -4z"/>
</g>
</svg>
