<svg id="Logo_NK_Kunststoffprodukte" xmlns="http://www.w3.org/2000/svg" viewBox="0 0 283.5 114.6"><style>.st0{fill:#f39100}</style><g id="Logo"><path id="Spartel" class="st0" d="M283.1.2h-96.4s-6.1-.9-13.6 9.1-26.9 35.1-27 35.1c0 0 19.5 25.2 27 35.1 7.5 10 13.6 9.1 13.6 9.1h96.4V.2z"/><path d="M0 99.8h1.9v7H2c.4-.6.8-1.1 1.1-1.6l4.4-5.5h2.3L4.6 106l5.7 8.4H8.1l-4.8-7.1-1.4 1.6v5.5H0V99.8zm17.6 0v8.6c0 3.3 1.4 4.6 3.4 4.6 2.2 0 3.5-1.4 3.5-4.6v-8.6h1.9v8.5c0 4.5-2.4 6.3-5.5 6.3-3 0-5.2-1.7-5.2-6.2v-8.6h1.9zm16.1 14.5V99.8h2.1l4.7 7.4c1.1 1.7 1.9 3.2 2.6 4.7-.2-1.9-.2-3.7-.2-6v-6.1h1.8v14.5h-1.9l-4.6-7.4c-1-1.6-2-3.3-2.7-4.9h-.1c.1 1.8.2 3.6.2 6v6.2h-1.9zm18-2.2c.8.5 2.1 1 3.4 1 1.9 0 3-1 3-2.5 0-1.4-.8-2.1-2.7-2.9-2.4-.8-3.8-2.1-3.8-4.1 0-2.3 1.9-4 4.7-4 1.5 0 2.6.3 3.2.7l-.5 1.5c-.5-.3-1.4-.7-2.8-.7-2 0-2.7 1.2-2.7 2.2 0 1.4.9 2 2.9 2.8 2.5.9 3.7 2.1 3.7 4.3 0 2.2-1.7 4.2-5.1 4.2-1.4 0-2.9-.4-3.7-.9l.4-1.6zm17.7-10.7H65v-1.6h10.8v1.6h-4.4v13h-1.9v-13zm11.5 10.7c.8.5 2.1 1 3.4 1 1.9 0 3-1 3-2.5 0-1.4-.8-2.1-2.7-2.9-2.4-.8-3.8-2.1-3.8-4.1 0-2.3 1.9-4 4.7-4 1.5 0 2.6.3 3.2.7l-.5 1.5c-.5-.3-1.4-.7-2.8-.7-2 0-2.7 1.2-2.7 2.2 0 1.4.9 2 2.9 2.8 2.5.9 3.7 2.1 3.7 4.3 0 2.2-1.7 4.2-5.1 4.2-1.4 0-2.9-.4-3.7-.9l.4-1.6zm17.7-10.7h-4.4v-1.6H105v1.6h-4.4v13h-1.9v-13zm23.8 5.5c0 5-3 7.7-6.8 7.7s-6.5-3-6.5-7.4c0-4.6 2.9-7.6 6.8-7.6 4 0 6.5 3 6.5 7.3zm-11.2.3c0 3.1 1.7 5.9 4.6 5.9 3 0 4.7-2.7 4.7-6 0-2.9-1.5-5.9-4.6-5.9-3.2-.1-4.7 2.8-4.7 6zm17.7-7.4h7.8v1.6h-6v4.8h5.5v1.6h-5.5v6.6h-1.9V99.8zm14.5 0h7.8v1.6h-6v4.8h5.5v1.6h-5.5v6.6h-1.9V99.8zm14.5.2c.9-.2 2.1-.3 3.6-.3 1.9 0 3.2.4 4.1 1.2.8.7 1.3 1.7 1.3 3s-.4 2.4-1.1 3.1c-1 1.1-2.6 1.6-4.4 1.6-.6 0-1.1 0-1.5-.1v5.8H158V100zm1.9 7c.4.1.9.2 1.6.2 2.3 0 3.6-1.1 3.6-3.1 0-1.9-1.4-2.8-3.4-2.8-.8 0-1.4.1-1.8.2v5.5zm13.6-7c1-.2 2.3-.3 3.6-.3 2 0 3.3.4 4.2 1.2.7.6 1.1 1.6 1.1 2.8 0 1.9-1.2 3.2-2.7 3.7v.1c1.1.4 1.8 1.4 2.1 2.9.5 2 .8 3.4 1.1 4H181c-.2-.4-.6-1.7-1-3.5-.4-2-1.2-2.8-2.9-2.8h-1.8v6.3h-1.9V100zm1.9 6.6h1.9c2 0 3.3-1.1 3.3-2.8 0-1.9-1.4-2.7-3.3-2.7-.9 0-1.6.1-1.9.2v5.3zm26.3.3c0 5-3 7.7-6.8 7.7s-6.5-3-6.5-7.4c0-4.6 2.9-7.6 6.8-7.6s6.5 3 6.5 7.3zm-11.3.3c0 3.1 1.7 5.9 4.6 5.9 3 0 4.7-2.7 4.7-6 0-2.9-1.5-5.9-4.6-5.9-3.2-.1-4.7 2.8-4.7 6zM208 100c1.1-.2 2.5-.3 4-.3 2.7 0 4.6.6 5.9 1.8 1.3 1.2 2.1 2.9 2.1 5.2 0 2.4-.7 4.3-2.1 5.7-1.4 1.4-3.6 2.1-6.4 2.1-1.3 0-2.5-.1-3.4-.2V100zm1.9 12.9c.5.1 1.2.1 1.9.1 4 0 6.2-2.2 6.2-6.2 0-3.4-1.9-5.6-5.9-5.6-1 0-1.7.1-2.2.2v11.5zm18.4-13.1v8.6c0 3.3 1.4 4.6 3.4 4.6 2.2 0 3.5-1.4 3.5-4.6v-8.6h1.9v8.5c0 4.5-2.4 6.3-5.5 6.3-3 0-5.2-1.7-5.2-6.2v-8.6h1.9zm16.1 0h1.9v7h.1c.4-.6.8-1.1 1.1-1.6l4.4-5.5h2.3L249 106l5.7 8.4h-2.2l-4.8-7.1-1.4 1.6v5.5h-1.9V99.8zm18.9 1.6h-4.4v-1.6h10.8v1.6h-4.4v13h-1.9v-13zm19.5 6.1h-5.7v5.2h6.3v1.6h-8.2V99.8h7.9v1.6h-6v4.6h5.7v1.5z" id="Kunststoffprodukte"/><g id="NK"><path id="N" d="M0 88.6V0h23.4l18.4 32.5c5.3 9.3 10.5 20.4 14.5 30.4h.4c-1.3-11.7-1.7-23.7-1.7-37V0h18.4v88.6h-21l-19-34.2C28.1 45 22.4 33.5 18 23.1l-.4.1c.5 11.7.8 24.2.8 38.7v26.7H0z"/><path id="K" d="M127.8 44.3L161.9.1h-16.3s-5.3-.8-12.1 7.2l-3.9 5.1c-5.3 7-13.5 17.7-18.9 24.7V0h-20v88.6h19.9V51.5c5.1 6.5 12.5 16.2 17.8 23.2l5.2 6.7c6.7 7.8 12 7.1 12 7.1h16.3l-34.1-44.2z"/></g></g></svg>